<?xml version="1.0" encoding="UTF-8"?>
<!DOCTYPE svg PUBLIC "-//W3C//DTD SVG 1.1//EN" "http://www.w3.org/Graphics/SVG/1.1/DTD/svg11.dtd">
<!-- Creator: CorelDRAW -->
<svg xmlns="http://www.w3.org/2000/svg" xml:space="preserve" width="1.59884in" height="1.72551in" version="1.1" style="shape-rendering:geometricPrecision; text-rendering:geometricPrecision; image-rendering:optimizeQuality; fill-rule:evenodd; clip-rule:evenodd"
viewBox="0 0 342.42 369.54"
 xmlns:xlink="http://www.w3.org/1999/xlink"
 xmlns:xodm="http://www.corel.com/coreldraw/odm/2003">
 <defs>
  <style type="text/css">
   <![CDATA[
    .fil0 {fill:#000013}
    .fil1 {fill:#000065}
    .fil3 {fill:#0A0000}
    .fil4 {fill:#7B0000}
    .fil2 {fill:#A32C30}
   ]]>
  </style>
 </defs>
 <g id="Layer_x0020_1">
  <metadata id="CorelCorpID_0Corel-Layer"/>
  <g id="_1291468638624">
   <path class="fil0" d="M0 179.7c-0,1.27 0.23,1.82 0.41,2.93 0.19,1.18 0.03,2.31 0.09,3.51l0.39 6.55c0.22,1.48 0.24,1.63 0.6,2.74 0.6,1.81 -0.07,2.66 1.08,5.86 0.32,0.9 0.17,2.25 0.41,3.19 0.28,1.13 0.6,1.36 0.8,2.54 0.27,1.53 0.47,1.6 0.8,2.79l2.38 7.39c0.31,0.84 0.42,0.46 0.74,1.57l0.99 2.61c0.19,0.46 0.26,0.8 0.5,1.29l0.55 1.25c0.39,1.03 0.76,1.23 1.08,2.26 0.44,1.39 1.16,2.4 1.75,3.65l0.77 1.54c1.7,2.61 3.04,5.55 4.78,8.33l11.42 15.85c0.03,0.04 0.08,0.1 0.12,0.14l4.24 5.02c0.21,0.22 0.21,0.21 0.39,0.39 0.05,0.05 0.21,0.2 0.26,0.25l0.26 0.26c0.3,0.31 0.54,0.6 0.85,0.95l1.61 1.74c0.69,0.69 1.11,1.11 1.8,1.8 2.62,2.66 5.46,4.82 8.22,7.22 0.35,0.3 0.66,0.58 0.98,0.82l6.21 4.35c2.88,1.9 5.93,3.53 9.05,5.1 11.67,5.86 24.39,9.58 37.89,10.77 10.32,0.91 18.38,0.83 28.66,-0.87 7.62,-1.25 15.57,-3.41 22.55,-6.5 5,-2.21 9.95,-4.49 14.76,-7.1l6.71 -4.09c0.81,-0.53 1.48,-0.92 2.23,-1.37 3.77,-2.25 6.97,-5.2 10.4,-7.87l5.88 -5.18c6.94,-6.41 13.64,-13.11 20.36,-19.77 0.76,-0.75 0.96,-1.2 1.67,-1.94l5.55 -5.51c0.76,-0.75 0.96,-1.2 1.67,-1.94 1.28,-1.32 2.47,-2.39 3.75,-3.71l5.86 -6.24c0.03,-0.04 0.08,-0.1 0.12,-0.14 1.94,-2.32 4.37,-4.35 6.18,-6.69 0.65,-0.84 1.23,-1.21 1.88,-1.98l3.39 -3.82c2.56,-3.2 4.34,-4.24 5.44,-9.23 1.77,-7.99 0.68,-15.98 -4.36,-22.34l-3.11 -3.58c-1.07,-1.08 -2.22,-2.04 -3.46,-2.97 -5.05,-3.79 -13.56,-6.31 -20.23,-4.17 -2.92,0.94 -6.02,2.2 -8.15,4.45 -0.01,0.01 -0.25,0.28 -0.36,0.41l-14 15.07c-0.17,0.21 -0.44,0.52 -0.6,0.68l-4.38 4.88c-0,0 -0.3,0.28 -0.39,0.38l-8.18 8.8c-0.31,0.31 -0.39,0.38 -0.65,0.64l-0.26 0.26c-0.04,0.04 -0.09,0.09 -0.12,0.13l-12.56 13.17c-0.13,0.12 -0.24,0.21 -0.41,0.36l-8.83 8.15c-0.37,0.31 -0.29,0.25 -0.68,0.61l-2.35 2.02c-0.59,0.44 -1.08,0.74 -1.66,1.17 -0.04,0.03 -0.11,0.08 -0.15,0.11l-6.84 4.22 -4.07 1.58c-0.8,0.33 -1.2,0.58 -1.99,0.84l-4.25 1.41c-0.93,0.28 -1.11,0.48 -2.07,0.76 -7.35,2.12 -14.39,3.17 -22.28,3.16 -8.52,-0.01 -17.97,-2.45 -25.12,-6.04 -13.51,-6.79 -23.53,-19.31 -29.03,-33.22 -5.48,-13.85 -7.04,-30.15 -2.29,-44.41 0.77,-2.31 1.99,-4.54 3.15,-6.63 1.19,-2.15 2.68,-3.92 4.19,-5.85l6.62 -8.05c0.52,-0.58 0.68,-0.87 1.16,-1.41l18.04 -19.27c0.48,-0.48 0.84,-0.79 1.29,-1.28 6.76,-7.29 14.1,-14.24 21.12,-21.33 0.94,-0.95 1.66,-1.38 2.58,-2.31l23.96 -23.12c0.3,-0.29 0.35,-0.33 0.68,-0.61l0.56 -0.47c2.45,-2.04 4.62,-4.5 6.97,-6.66 0.04,-0.04 0.09,-0.09 0.13,-0.12 0.26,-0.24 0.39,-0.34 0.68,-0.61 5.17,-4.86 10.05,-10.02 15.08,-15.03 3.43,-3.41 6.54,-6.48 7.94,-11.88 2.28,-8.84 -1.44,-15.75 -6.6,-21.69 -1.54,-1.76 -3.08,-3.7 -4.89,-5.14 -6.15,-4.88 -14.12,-6.62 -21.97,-4.69 -1.85,0.46 -3.7,1.24 -5.08,2.38l-6.45 6.16c-0.43,0.43 -0.85,0.84 -1.27,1.3l-4.49 4.52c-0.04,0.04 -0.09,0.09 -0.13,0.13l-23.06 22.99c-0.62,0.58 -0.74,0.64 -1.3,1.27l-11.97 11.95c-0.2,0.19 -0.46,0.41 -0.67,0.61l-6.03 6.06c-1.33,1.43 -2.94,2.54 -4.31,3.93 -0.04,0.04 -0.09,0.09 -0.13,0.13l-11.24 11.14c-0.25,0.27 -0.39,0.45 -0.61,0.68l-0.9 0.9c-0.04,0.04 -0.09,0.09 -0.13,0.13l-0.26 0.26c-0.26,0.26 -0.35,0.34 -0.65,0.64l-8.9 8.85c-0.04,0.04 -0.08,0.1 -0.12,0.14l-7.47 7.46c-0.2,0.21 -0.23,0.25 -0.37,0.4 -0.29,0.32 -0.27,0.3 -0.63,0.66l-5.7 5.61c-0.04,0.04 -0.09,0.09 -0.13,0.13 -0.04,0.04 -0.09,0.09 -0.13,0.13l-9.72 9.83c-0.27,0.34 -0.3,0.44 -0.54,0.75l-10.09 16.42c-0.32,0.6 -0.18,0.19 -0.5,0.79 -1.32,2.48 -2.9,6.75 -3.59,8.25 -0.02,0.05 -0.06,0.12 -0.09,0.17 -0.03,0.05 -0.07,0.11 -0.1,0.16l-1.53 3.88c-0.3,1.51 -0.32,0.86 -0.76,1.81 -0.41,0.86 -0.14,1.15 -0.54,2.04l-1.87 5.6c-0.15,0.89 -0.27,1.12 -0.62,1.95 -0.51,1.17 -0.22,0.84 -0.37,2.2 -0.19,1.63 -0.93,1.74 -1,3.9 -0.06,2.05 -0.66,2.29 -0.94,4.21 -0.25,1.68 -0.01,2.73 -0.59,4.31 -1.13,3.07 -0.43,8.75 -0.85,12.03 -0.11,0.85 -0.49,1.22 -0.49,2.09z"/>
   <path class="fil1" d="M1.15 174.29c0,2.17 -0.25,4.03 -0.24,5.92l1.63 17.66c0.43,1.84 0.5,4.07 1.13,5.6 0.43,1.05 0.31,1.58 0.55,2.75 0.29,1.43 0.62,0.85 0.8,2.56 0.13,1.26 0.17,1.49 0.62,2.53 0.27,0.64 0.21,0.54 0.4,1.14 0.46,1.44 -0.02,0.2 0.62,1.19l2.66 7.34c0.13,0.31 0.26,0.44 0.3,0.5l6.31 12.68c0.23,0.45 0.19,0.62 0.47,1.1l3.27 5.21c0.51,0.81 0.8,1.05 1.3,2.03l2.64 3.83c0.34,0.48 0.27,0.34 0.62,0.9l0.77 1.07c2.5,3.14 4.74,6.34 7.35,9.37l4.62 5.15c0.6,0.67 0.99,1.1 1.6,1.74 1.91,2.02 4.75,4.02 6.47,5.9 0.54,0.59 0.07,0.14 0.51,0.51l4.84 3.19c0.99,0.62 1.8,1.65 2.74,2.36 1.39,1.04 2.87,1.52 4.32,2.39 1.72,1.03 1.64,1.27 4.23,2.46l9.52 4.37c1.48,0.77 2.27,1.31 4.01,1.75 1.36,0.35 0.61,0.61 2.59,0.84 1.33,0.16 1.12,0.61 2.41,0.92 0.51,0.12 0.97,0.06 1.45,0.15 1.75,0.33 0.29,0.06 1.2,0.61 0.86,0.52 1.63,0.18 2.61,0.45 0.67,0.18 1.37,0.8 2.27,0.96 2.13,0.4 1.8,-0.13 4.33,0.64 2.52,0.77 5.63,-0.33 7.88,0.69 2.65,1.2 8.83,0.65 12.06,0.66l9.27 -0.02c1.68,-0.03 1.45,-0.27 2.46,-0.66 1.9,-0.74 5.46,0.43 7.08,-0.8 0.53,-0.4 -0.41,-0.29 1.22,-0.52 0.68,-0.1 2.13,-0.07 2.87,-0.08 0.14,-0.59 0.12,-0.56 0.33,-0.88 2.97,-0.06 2.8,-0.66 5.49,-1.11l8.21 -2.87c0.37,-0.08 1.06,-0.15 1.4,-0.32l15.14 -7.45c1.04,-0.49 1.05,-0.94 2.14,-1.26 0.6,-0.18 0.75,-0.04 1.24,-0.3l0.5 -0.44c0.04,-0.04 0.09,-0.09 0.13,-0.13 0.95,-0.87 2.18,-1.12 2.76,-1.62 0.04,-0.03 0.08,-0.09 0.11,-0.12l1.29 -1.07c1.18,-0.75 2.62,-1.12 3.65,-1.99 0.04,-0.03 0.1,-0.09 0.14,-0.12 1.84,-1.52 1.99,-0.86 3.11,-2.24l1.96 -1.68c0.04,-0.04 0.1,-0.09 0.14,-0.13l2.09 -1.74c0.04,-0.04 0.09,-0.1 0.13,-0.14l2.24 -2.11c0.13,-0.15 0.25,-0.28 0.38,-0.42 1.25,-1.34 1.96,-1.21 5.3,-5l3.35 -3.08c0.04,-0.04 0.09,-0.09 0.13,-0.13 0.04,-0.04 0.09,-0.09 0.13,-0.13l6.8 -6.85c0.29,-0.34 0.38,-0.51 0.71,-0.8 0.15,-0.14 0.21,-0.16 0.42,-0.35l1.05 -1.04c1.24,-1.44 3.02,-2.84 4.29,-4.19l3.51 -3.89c0.05,-0.03 0.11,-0.07 0.16,-0.11 0.06,-0.05 0.25,-0.19 0.31,-0.24 0.22,-0.19 0.52,-0.47 0.8,-0.75l3.11 -3.31c0.09,-0.08 0.4,-0.35 0.42,-0.37l0.98 -1.63c0.03,-0.04 0.08,-0.09 0.12,-0.13 0.03,-0.04 0.09,-0.1 0.12,-0.14l0.43 -0.61c0.65,-0.82 -0.12,-0.12 0.82,-0.6l0.99 -0.65c0.35,-0.32 0.54,-0.57 0.88,-0.92l15.87 -16.28c0.05,-0.06 0.19,-0.22 0.24,-0.28l5.83 -6.5c1.08,-1.52 1.55,-3.32 1.82,-5.05 0.44,-2.76 0.94,-1.68 0.95,-5.66 0,-1.84 0.34,-4.48 -0.11,-6.24 -0.2,-0.76 -0.6,-1 -0.79,-2.02 -0.22,-1.17 0.13,-1.42 -0.47,-2.23l-1.31 -2.31c-0.03,-0.05 -0.07,-0.11 -0.1,-0.17l-0.19 -0.35c-1.32,-2.37 -3.17,-3.44 -4.78,-5.71 -1.36,-1.92 -6.42,-5.22 -8.72,-5.82 -1.92,-0.5 -1,-0.55 -2.11,-0.93 -1.89,-0.64 -9.65,-0.68 -11.77,-0.08l-2.56 1.05c-4.29,1.7 -4.39,1.73 -7.49,5.72l-1.32 1.49c-0.05,0.06 -0.19,0.23 -0.24,0.28l-4.58 4.93c-1.74,1.54 -4.05,3.95 -5.28,5.8l-0.94 0.83c-0.83,0.68 -1.19,1.63 -2.04,2.34 -1.18,0.99 -1.81,2.1 -3.01,3.15 -2,1.76 -5.72,6.11 -7.45,8.28l-3.34 3.61c-0.27,0.29 -0.35,0.37 -0.63,0.65l-7.3 7.36c-1.3,1.26 -2.13,2.44 -3.45,3.48 -3.61,2.88 -6.03,6.36 -10.11,9.19l-5.52 4.26c-0.87,0.61 -3.45,2.51 -4.33,2.8 -0.85,0.28 -0.94,0.47 -1.63,0.67l-4.19 2.05c-0.32,0.24 0.02,0.16 -0.81,0.34l-1.98 0.44c-1.01,0.53 0.22,0.32 -1.92,0.54 -1.7,0.17 -1.38,0.74 -3.87,0.89 -1.3,0.08 -0.96,-0.03 -1.82,0.52 -1.05,0.67 -6.07,1.51 -7.75,1.7l-1.35 0.24c-0.06,0.02 -0.12,0.05 -0.18,0.07 -1.9,0.63 -12.09,0.65 -14.89,0.36 -1.37,-0.14 -2.72,-0.63 -4.02,-0.84 -4.22,-0.68 -2.05,-0.58 -3.58,-0.99 -1.66,-0.45 -2.57,0.14 -4.3,-0.72 -0.95,-0.47 -1.89,-0.36 -2.71,-0.94 -0.33,-0.23 -0.62,-0.34 -0.75,-0.37 -0.33,-0.08 -0.58,-0.06 -0.89,-0.14 -1.24,-0.34 1.19,0.59 -0.44,-0.15 -0.4,-0.18 -0.3,-0.2 -0.5,-0.33 -1.06,-0.74 -0.61,-0.22 -1.74,-0.77 -1.09,-0.53 -0.18,-0.46 -1.45,-0.76 -1.85,-0.44 -0.53,0.03 -1.75,-0.7l-3.16 -1.77c-0.91,-0.66 -1.76,-0.96 -2.59,-1.84l-7.95 -6.94c-0.5,-0.53 0.04,-0.02 -0.49,-0.5l-0.27 -0.23c-0.13,-0.11 -0.31,-0.25 -0.43,-0.35 -0.77,-0.66 -0.78,-0.7 -1.31,-1.31l-1.39 -1.69c-0.03,-0.04 -0.08,-0.1 -0.12,-0.15l-2.01 -2.94c-0.51,-0.86 -1.84,-2.02 -2.73,-3.42 -0.27,-0.42 -0.06,-0.11 -0.37,-0.71l-0.58 -0.92c-0.03,-0.05 -0.08,-0.11 -0.11,-0.15 -0.04,-0.06 -0.26,-0.41 -0.3,-0.48 -0.1,-0.16 -0.4,-0.66 -0.48,-0.81 -0.62,-1.18 -0.38,-1.28 -1.33,-2.42l-4.11 -8.83c-0.36,-0.98 -0.11,-0.98 -0.64,-1.91 -0.35,-0.63 -0.09,0.11 -0.36,-0.66 -0.15,-0.41 -0.14,-0.67 -0.23,-1.11 -0.18,-0.91 -0.44,-1.23 -0.65,-1.94 -0.49,-1.7 0.11,-2.54 -0.67,-3.92 -0,-0 -0.24,-0.28 -0.38,-0.7 -0.36,-1.06 -0.23,-2.56 -0.35,-3.58 -0.46,-3.82 -0.88,-0.73 -0.87,-9 0.01,-3.67 -0.53,-8.98 0.73,-12.32 0.47,-1.25 0.11,-2.42 0.7,-3.48 1.03,-1.87 0.63,-0.44 0.69,-3.5 2.39,-1.05 -0.31,-2.94 2.04,-3.09 0,-1.74 0.44,-1.41 0.84,-2.89 0.72,-2.65 4.2,-6.86 6.27,-9.05 1.15,-1.21 1.83,-2.81 3.08,-3.9 1.07,-0.94 0.05,-0.01 0.88,-0.88l1.37 -1.42c0.14,-0.18 0.36,-0.47 0.47,-0.59l2.54 -3.08c1.36,-1.76 2.96,-3.18 4.38,-4.94l10.91 -11.44c0.67,-0.8 1.13,-0.91 1.7,-1.84l1.99 -2c0.78,-0.61 0.33,-0.07 1.06,-0.72l0.93 -1.33c0.04,-0.05 0.08,-0.11 0.12,-0.16l0.9 -0.92c0.04,-0.04 0.09,-0.09 0.13,-0.13l2.85 -2.85c0.41,-0.36 0.15,-0.1 0.51,-0.48l12.18 -12.01c0.04,-0.03 0.09,-0.08 0.12,-0.12l1.76 -1.65c1.61,-1.06 -0.68,1.03 0.49,-0.43l15.91 -15.28c0.04,-0.04 0.09,-0.09 0.13,-0.12l7.12 -7.25c0.91,-1.17 1.13,-0.87 2.1,-1.79l0.25 -0.25c0.16,-0.16 0.39,-0.42 0.5,-0.53l3.75 -3.69c0.04,-0.04 0.46,-0.45 0.52,-0.51 0.04,-0.04 0.09,-0.09 0.13,-0.13l1.05 -1.01c0.05,-0.05 0.21,-0.2 0.26,-0.26l4.89 -4.42c1.22,-0.91 2.05,-2.25 3.1,-3.29l6.81 -7.33c0.04,-0.04 0.09,-0.09 0.13,-0.12l6.45 -6.45c0.71,-0.92 1.15,-2.14 1.68,-2.61 0.61,-0.54 0.88,-1.27 1.2,-1.98 0.46,-1 0.27,-1.64 0.82,-2.79 0.62,-1.29 0.76,-7.6 0.24,-9.08 -0.38,-1.06 -0.47,-0.65 -0.79,-2.21 -0.08,-0.39 -0,-0.25 -0.16,-0.67 -0.28,-0.74 -0.46,-0.51 -0.81,-1.47 -0.67,-1.88 -2.14,-3.2 -3.05,-4.96 -1.29,-2.46 -5.37,-6.55 -7.76,-8.02 -0.63,-0.39 -0.38,-0.25 -0.9,-0.61 -5.13,-3.53 -11.7,-3.21 -17.66,-2.52 -4.76,0.55 -4.76,2.01 -6.42,3.47l-3.87 3.35c-1.48,1.42 -2.76,3.09 -4.39,4.34 -0.04,0.03 -0.11,0.08 -0.15,0.11 -1.24,1.01 -2.28,2.42 -3.41,3.56l-1.84 1.75c-0.46,0.42 -0.74,0.73 -1.15,1.17l-1.67 1.67c-0.04,0.04 -0.08,0.1 -0.12,0.15l-16.41 16.51c-0.24,0.24 -0.31,0.3 -0.52,0.51 -0.38,0.38 -0.2,0.25 -0.63,0.64 -3.14,2.86 -6.02,6.18 -9.18,9.08l-1.77 1.84c-0.04,0.03 -0.1,0.08 -0.13,0.12 -0.04,0.04 -0.1,0.08 -0.14,0.12 -0.04,0.04 -0.1,0.08 -0.14,0.12 -0.04,0.04 -0.1,0.09 -0.14,0.12l-15.01 14.84c-0.04,0.04 -0.09,0.09 -0.13,0.13l-3.13 3.05c-0.04,0.04 -0.09,0.09 -0.13,0.13 -0.04,0.04 -0.09,0.1 -0.13,0.14l-8.08 7.84c-0.03,0.02 -0.52,0.5 -0.54,0.52l-13.52 13.73c-2.36,2.17 -0.79,1.67 -3.07,3.05 -1.13,0.69 -2,1.92 -2.87,2.87 -0.24,0.27 -0.31,0.37 -0.6,0.67 -0.41,0.42 -0.73,0.64 -1.2,1.1 -0.5,0.49 -0.89,0.91 -1.27,1.3 -0.42,0.42 -0.75,0.75 -1.15,1.16 -0.45,0.45 -0.84,0.8 -1.35,1.2l-5.17 5.63c-0.51,0.44 -0.26,0.22 -0.65,0.67l-0.6 0.68c-0.05,0.05 -0.21,0.2 -0.26,0.26l-9.73 14.52c-0.17,0.37 -0.09,0.27 -0.21,0.6 -0.9,2.64 -3.08,5.25 -4.03,8.03l-1.04 2.58c-0.15,0.61 0.01,0.4 -0.24,1.03 -0.23,0.56 -0.6,0.9 -0.89,1.61 -0.94,2.36 -1.73,5.57 -2.51,7.33 -0.45,1.02 -0.61,2.41 -1.13,3.77 -0.43,1.1 -0.22,2.28 -0.58,3.33l-0.73 1.24c-0.15,0.52 -0.07,0.74 -0.13,1.24 -0.27,2.11 -0.29,-0.18 -0.73,1.81 -0.28,1.25 -0.12,3.31 -0.46,4.45 -0.73,2.45 -0.58,1.4 -0.68,4.3 -0.06,1.72 -1.03,5.88 -1.03,8.74z"/>
   <path class="fil2" d="M110.67 147.19c-0.92,-0.21 -0.11,-0.53 -2,1.35l-7.96 8.51c-0.21,0.21 -0.22,0.22 -0.38,0.39l-2.19 2.44c-0.26,0.25 -0.16,0.15 -0.39,0.39l-0.37 0.41c-0.7,0.76 -0.89,0.49 -0.63,1.42 -0.11,1.91 -0.54,0.77 -0.84,2.58 -0.25,1.47 -0.35,1.57 -0.71,2.57 -0.61,1.68 -0.37,4.19 -0.36,6.17 0.01,5.95 -0.06,7.33 2.48,11.98l0.99 1.84c1.15,1.82 1.68,2.83 3.56,4.45 0.6,0.52 1.22,0.95 1.87,1.49 0.32,0.27 0.49,0.41 0.88,0.68 1.63,1.16 2.98,2.53 5.22,2.7 0.4,1.26 -0.16,0.55 0.97,0.93 4.19,1.41 1.33,0.59 5.05,1.16 1.97,0.31 5.77,0.29 7.62,-0.17 1.14,-0.28 0.5,-0.25 1.32,-0.75 0.76,-0.46 2.19,0.01 6.72,-3.62l9.99 -10.08c0.65,-0.67 1.17,-1.56 1.87,-2.25l4.09 -4.14c0.29,-0.32 0.73,-0.78 1,-1.06l3.93 -4.02c1.24,-1.08 0.98,-1.3 1.97,-2.14l1.03 -1.06c0.73,-0.92 1.2,-1.05 1.84,-2.03l2.97 -3.14c0.63,-0.54 0.46,-0.25 1.1,-0.98 0.76,-0.88 1.22,-1.17 2.01,-2.12l4.1 -3.86c0.79,-0.78 1.34,-1.32 2.1,-2.02 1.42,-1.3 7.39,-7.38 8.66,-8.29 1,-0.72 2.8,-2.85 4.28,-2.92l2.45 -1.96c0.92,-0.71 1.81,-1.15 2.7,-1.92 0.26,-0.23 0.07,-0.1 0.41,-0.37 1.71,-1.36 1.21,-0.53 3.56,-2.63 1.01,-0.9 0.72,-0.31 1.73,-1.1 1.58,-1.24 0.18,-0.14 1.78,-0.99 2.34,-1.24 4.69,-2.35 7.45,-2.63 1.9,-0.2 1.34,-0.8 3.37,-1.02 0.47,-0.05 0.69,-0.01 1.12,-0.17 0.7,-0.26 0.47,-0.67 2.5,-0.82 3.58,-0.27 0.58,-0.75 3.82,-0.91 5.65,-0.28 3.09,-0.48 4.9,-0.93 1.14,-0.28 19.54,-0.04 21.22,0 1.38,1.91 2.22,0.37 4.47,1.1 1.22,0.4 0.12,0.59 1.83,0.88l4.31 1.26c1.14,0.62 -0.02,0.35 1.83,0.76 1.52,0.34 0.45,0.39 1.89,0.93 0.68,0.25 0.31,-0.01 0.94,0.35l1.84 0.99c0.56,0.32 -0.01,0.07 0.76,0.52l5.87 3.9c1.64,1.49 2.37,1.8 3.46,2.7l0.28 0.26c0.05,0.05 0.55,0.52 0.65,0.64 0.44,0.5 0.13,-0.3 0.47,0.74 1.59,0.09 0.59,-0.13 1.59,0.79l2.61 2.81c0.03,0.04 0.08,0.09 0.12,0.13l0.71 0.57c0.04,0.04 0.1,0.09 0.14,0.12l6 8.18c0.58,0.9 0.45,0.26 1.04,1.2 0.89,1.4 1.57,3.15 2.59,4.63l1.19 2.34c0.16,0.44 0.1,0.59 0.3,1.04l0.2 0.35c1.46,2.22 -0.02,0.66 1.17,2.91 0.4,0.76 0.33,0.97 0.52,1.76 0.3,1.23 0.44,0.86 0.77,1.83 0.83,2.45 0.91,3.01 1.34,5.57 0.21,1.23 0.4,0.8 0.67,1.93 0.32,1.33 0.25,2.63 0.6,4.01 0.79,3.07 0.68,14.95 0.48,18.78 -0.15,2.93 -1.61,8.99 -2.65,11.73 -0.45,1.18 0.04,1.14 -0.81,2.52l-0.21 0.31c-0.03,0.06 -0.06,0.12 -0.09,0.18l-0.14 0.41c-0.59,1.75 -0.35,0.29 -1.17,2.43l-1.4 2.93c-0.03,0.04 -0.09,0.1 -0.12,0.15l-18.98 20.88c-0.78,0.8 -1.22,1.83 -2.75,2.13 -0.12,0.98 -0.21,0.87 -0.81,1.5l-1.4 1.18c-2.96,2.58 -9.06,9.62 -12.61,12.59l-31.24 28.98c-1.17,1.05 -2.28,1.73 -3.17,3.03 -0.42,0.62 -0.78,0.72 -1.39,1.12 -1.66,1.1 -2.95,2.86 -4.56,4.19l-13.1 12.13c-0.35,0.36 -0.28,0.32 -0.63,0.63 -0.06,0.05 -0.22,0.19 -0.28,0.24 -0.12,0.1 -0.34,0.29 -0.42,0.36l-3.16 3.04c-0.68,0.82 -0.53,1.09 -1.44,1.54 -0.92,0.45 -1.45,1.12 -3.26,2.74 -0.99,0.88 -1.51,1.5 -2.63,2.52 -0.99,0.9 -1.79,1.59 -2.67,2.48 -0.89,0.89 -1.51,1.53 -2.43,2.46 -1.81,1.82 -3.34,3.03 -4.74,5.27l-1.62 3.42c-0.88,3.66 -2.1,8.99 0.12,12.77l0.94 1.63c0.03,0.05 0.07,0.12 0.11,0.17 0.49,0.69 0.58,0.54 0.84,1.36 0.61,1.88 3.07,4.97 4.36,6.29l0.57 0.5c0.05,0.03 0.11,0.07 0.16,0.11l0.86 0.83c1.19,2.02 1.79,1.92 3.14,3.34l6.26 3.82c1.57,0.73 7.49,0.9 9.71,0.71 3.42,-0.29 4.92,-0.82 7.78,-2.35l5.16 -4.91c1.27,-1.59 1.91,-1.61 3.29,-2.86l3.69 -3.77c0.04,-0.03 0.1,-0.08 0.13,-0.12 0.37,-0.31 0.36,-0.26 0.72,-0.55l13.49 -13.01c0.06,-0.05 0.23,-0.18 0.29,-0.23l4.25 -4.04c0.51,-0.68 0.91,-0.74 1.55,-1.21l2.59 -2.56c0.61,-0.6 0.81,-0.88 1.83,-1.04 0.27,-0.24 0.98,-0.67 1.45,-1.1 0.9,-0.82 0.65,-1.01 1.52,-1.81l3.98 -3.5c0.71,-0.65 0.57,-0.6 1.22,-1.35l18.05 -16.94c0.75,-0.66 0.58,-0.68 1.21,-1.37l5.56 -5.24c0.52,-0.52 0.86,-1.01 1.39,-1.43 0.32,-0.26 0.12,-0.08 0.44,-0.33 0.04,-0.03 0.11,-0.08 0.15,-0.11l0.88 -0.67c1.06,-0.81 1.73,-1.66 2.72,-2.69 1,-1.02 1.38,-0.89 2.94,-2.46 0.72,-0.73 1.82,-2.04 2.56,-2.6l2.16 -1.94c0.04,-0.04 0.09,-0.1 0.12,-0.13l2.31 -2.58c0.04,-0.04 0.09,-0.09 0.13,-0.12l4.91 -4.6c1.6,-1.33 2.77,-2.02 4.21,-3.78 1.28,-1.57 0.42,-0.45 2.89,-2.52l2.78 -2.56c0.14,-0.19 0.36,-0.47 0.64,-0.71l3.39 -3.3c1.52,-1.67 2.78,-2.37 4.9,-4.61 0.24,-0.26 -0.33,0.37 0.25,-0.26 0.04,-0.04 0.09,-0.09 0.12,-0.13l0.24 -0.27c0.35,-0.44 -0.02,0.03 0.32,-0.45 1.54,-2.23 4.02,-5.39 5.12,-7.51 0.26,-0.5 0.73,-1.2 1.07,-1.77l2.53 -4.17c0.52,-0.91 2.1,-3.19 2.16,-4.03 0.08,-1.88 2.22,-5.08 2.93,-7.01 1.29,-3.48 1.23,-2.11 2.1,-5.45 0.34,-1.31 0.37,-0.68 0.72,-1.59 0.31,-0.8 0.15,-1.24 0.56,-2.04 0.41,-0.8 0.36,-0.21 0.65,-1.7 0.29,-1.47 0.27,-0.82 0.68,-1.84 0.39,-0.96 0.14,-1.23 0.32,-2.12 0.2,-0.94 0.39,-0.39 0.82,-1.66 0.23,-0.68 0.17,-1.2 0.35,-1.96 0.27,-1.17 0.51,-0.68 0.73,-1.86 0.13,-0.7 0.05,-1.49 0.17,-2.22 0.26,-1.71 0.9,-1.47 0.97,-3.95 0.07,-2.69 0.62,-1.97 0.91,-3.83 0.22,-1.44 0.1,-3.19 0.34,-4.59 1.18,-6.75 1.28,-16.65 0.09,-23.11 -0.22,-1.17 -0.1,-3.46 -0.54,-4.38 -0.32,-0.68 -0.61,-0.35 -0.69,-1.64 -0.1,-1.44 0.23,-3.45 -0.38,-4.7 -1.41,-2.87 -0.26,-1.85 -0.84,-4.02 -0.23,-0.87 -0.46,-0.59 -0.68,-1.62 -0.45,-2.07 -0.77,-3.94 -1.76,-5.72 -0.52,-0.93 -0.78,-3.57 -1.85,-5.35l-2.35 -5.04c-0.4,-0.91 -0.12,-1.86 -1.83,-4.41 -0.86,-1.29 -1.14,-2.71 -1.92,-4.02l-9.18 -15c-0.16,-0.23 -0.35,-0.48 -0.58,-0.73 -1.91,-2.13 -1.29,-1.8 -2.56,-3.55l-0.54 -0.75c-3.01,-3.87 -6.24,-7.43 -9.69,-10.91 -0.81,-0.82 -1.57,-1.59 -2.41,-2.47l-2.1 -1.78c-0.44,-0.33 -0.09,-0 -0.57,-0.45 -1.03,-0.96 -1.15,-1.49 -2.6,-2.32 -0.98,-0.55 -1.18,-0.4 -1.87,-1.17 -0.04,-0.04 -0.08,-0.1 -0.12,-0.14 -1.03,-1.14 -2.32,-1.98 -3.58,-2.88l-15.19 -8.95c-1.87,-1 -8.83,-3.4 -9.71,-4 -0.82,-0.57 -1.89,-0.39 -2.82,-0.66 -0.56,-0.17 -0.97,-0.49 -1.62,-0.68l-1.7 -0.41c-1.83,-0.73 -4.31,-0.78 -6.19,-1.54 -1.33,-0.53 -2.4,0 -4.06,-0.84 -1.16,-0.59 -3.06,-0.41 -4.49,-0.49 -1.63,-0.09 -2.17,-0.58 -4.37,-0.57 -1.67,0 -2.77,-0.3 -4.62,-0.3 -3.26,0 -6.52,0 -9.78,-0.01 -3.71,-0.02 -6.13,0.72 -9,0.81 -0.86,0.03 -1.65,0.07 -2.39,0.16 -0.59,0.07 -0.62,0.04 -1.11,0.2 -2.01,0.65 -2.39,0.79 -4.93,0.82 -0.87,1.52 -1.93,0.86 -4.18,1.04 -2.91,0.23 -4.16,1.4 -5.98,1.79l-4.02 1.16c-1.25,0.34 -0.62,0.57 -1.66,0.83 -0.44,0.11 -0.68,0.04 -1.16,0.19 -1.36,0.42 0,-0.06 -0.83,0.49l-3.8 1.36c-1.57,0.59 -0.29,0.46 -1.56,0.94l-1.9 0.71c-0.78,0.41 -1.14,0.32 -1.98,0.69 -2.46,1.07 -5.04,2.58 -7.1,4.39l-0.94 0.45c-1.81,0.39 -3.56,1.68 -5.1,2.76l-4.56 3.13c-0.28,0.18 -0.19,0.09 -0.49,0.31l-3.91 3.04c-1.13,0.87 -1.99,1.38 -2.97,2.18l-11.13 9.96c-0.04,0.04 -0.09,0.09 -0.13,0.13l-5.11 4.65c-2.67,2.25 -5.06,5.35 -7.62,7.57 -0.04,0.04 -0.1,0.08 -0.14,0.12l-2.6 2.57c-0.92,1.1 -0.45,0.28 -1.52,1.03l-3.74 3.94c-0.61,0.78 -1.34,0.93 -1.99,1.88 -0.85,1.23 -2.26,2.13 -3.26,3.24 -0.43,0.47 -0.71,0.86 -1.23,1.32 -2.09,1.84 -2.67,2.89 -3.83,3.89 -0.62,0.54 -0.77,0.58 -1.34,1.19 -0.87,0.93 -0.37,0.88 -1.61,1.23z"/>
   <path class="fil3" d="M195.16 81.59c2.29,-0.06 1.65,-0.64 4.35,-1.07 1.4,-0.22 0.6,-0.39 1.67,-0.76 0.72,-0.25 1.57,-0.15 2.34,-0.26 1.66,-0.23 0.7,-0.38 1.78,-0.75 0.75,-0.26 1.69,-0.18 2.49,-0.23 2.11,-0.14 1.6,-0.86 4.09,-0.96 3.01,-0.12 2.23,-0.48 4.34,-0.75 5.64,-0.73 21.66,-0.22 28.1,-0.04 1.54,0.04 1.01,-0.13 1.94,0.44 0.84,0.51 2.88,0.5 4.18,1.03 1.52,0.62 3.23,0.18 4.44,0.73 0.96,0.43 0.13,0.56 2.01,0.68 3.51,0.23 1.63,0.79 4.13,1.03 1.61,0.15 0.79,-0.13 1.86,0.55 1.18,0.76 0.82,0.28 2.12,0.57 1.38,0.3 0.46,0.48 1.7,0.84 1.13,0.33 1.04,-0.08 2.05,0.51l3.59 1.55c1.39,0.34 2.3,0.83 3.55,1.58 0.97,0.58 1.8,0.64 2.6,1.22 0.54,0.39 0.27,0.17 0.84,0.47l4.94 2.82c0.72,0.34 0.97,0.57 1.57,0.96l3.87 2.58c0.63,0.49 0.08,0.12 0.72,0.53 1.06,0.68 1.89,1.38 2.93,2.21 1.67,1.33 3.23,2.15 4.61,3.65 0.14,0.15 0.24,0.26 0.38,0.41l2.16 1.72c0.68,0.4 0.85,0.58 1.39,1.15l6.22 6.63c0.8,0.98 0.91,0.8 1.76,2.05 0.7,1.03 1.68,1.8 2.46,2.72 0.05,0.06 0.19,0.23 0.25,0.28 1.33,1.45 4.23,6.08 5.6,8.06l2.06 3.1c1.98,2.94 3.83,5.78 5.35,8.78l1.78 3.39c0.23,0.41 0.22,0.51 0.42,0.88 0.4,0.74 0.47,0.3 0.91,1.53 0.34,0.97 0.65,0.85 0.94,1.62 0.17,0.45 0.09,0.61 0.28,1.05 0.48,1.12 0.05,-0.04 0.52,0.77l2.88 7.44c0.53,1 0.26,0.95 0.6,2.02 0.32,1.04 0.42,0.51 0.75,1.87 0.34,1.38 0.06,0.73 0.66,1.81 0.66,1.19 1.19,4.53 1.56,6.19 0.27,1.2 0.43,0.54 0.74,1.76 0.46,1.81 0.07,2.43 0.79,4.4l1.31 8.91c0.37,6.8 0.25,13.49 -0.03,20.31 -0.06,1.53 -0.56,3.04 -0.72,4.37 -0.2,1.62 -0.2,3.49 -0.38,4.97 -0.24,1.99 -0.77,1.81 -0.91,4.29 -0.08,1.44 -0.02,1.12 -0.5,2.06 -0.47,0.94 -0.41,1.1 -0.46,2.32 -0.09,2.08 -0.76,1.79 -1.07,4 -0.23,1.66 -0.3,0.81 -0.72,1.75 -0.44,0.98 -0.11,1.49 -0.42,2.22 -0.53,1.29 -0.52,-0.31 -0.87,1.76 -0.21,1.24 -0.76,2.38 -1.33,3.65 -0.45,1.01 -0.37,0.51 -0.7,1.98 -0.27,1.19 -0.48,0.93 -0.81,1.71 -0.47,1.11 -0.28,1.65 -1.02,2.81 -0.22,0.34 -0.25,0.5 -0.44,0.92 -0.49,1.06 -1.38,2.29 -1.71,3.42 -0.38,1.31 0.02,1.31 -1.3,1.71 -0.06,0.85 -1.64,3.12 -2.16,4.03l-2.53 4.17c-0.34,0.57 -0.81,1.27 -1.07,1.77 -1.1,2.12 -3.58,5.28 -5.12,7.51 -0.33,0.48 0.03,0.01 -0.32,0.45l-0.24 0.27c-0.03,0.04 -0.09,0.09 -0.12,0.13 -0.58,0.63 -0.01,0.01 -0.25,0.26 -2.11,2.24 -3.37,2.94 -4.9,4.61l-3.39 3.3c-0.27,0.24 -0.5,0.52 -0.64,0.71l-2.78 2.56c-2.46,2.07 -1.6,0.95 -2.89,2.52 -1.44,1.76 -2.61,2.45 -4.21,3.78l-4.91 4.6c-0.04,0.04 -0.09,0.09 -0.13,0.12l-2.31 2.58c-0.04,0.04 -0.09,0.1 -0.12,0.13l-2.16 1.94c-0.74,0.56 -1.84,1.88 -2.56,2.6 -1.57,1.58 -1.94,1.44 -2.94,2.46 -1,1.02 -1.66,1.88 -2.72,2.69l-0.88 0.67c-0.04,0.03 -0.11,0.08 -0.15,0.11 -0.32,0.24 -0.12,0.07 -0.44,0.33 -0.52,0.42 -0.87,0.91 -1.39,1.43l-5.56 5.24c-0.63,0.69 -0.46,0.71 -1.21,1.37l-18.05 16.94c-0.64,0.75 -0.51,0.7 -1.22,1.35l-3.98 3.5c-0.87,0.8 -0.62,1 -1.52,1.81 -0.47,0.42 -1.17,0.86 -1.45,1.1 -0.79,1.55 -4.07,4.04 -5.4,5.42l-3.73 3.73c-3.27,2.61 -8.31,8.23 -10.95,10.37l-2.76 2.71c-0.33,0.43 -0.06,0.09 -0.34,0.48l-7.97 7.14c-1.31,1.32 -1.72,1.92 -3.23,2.97 -0.04,0.03 -0.11,0.07 -0.14,0.09l-1.35 1.48c-1.44,1.39 -3.43,1.96 -5.06,2.35 -2.79,0.67 2.03,0.96 -6.68,0.96 -1.56,0 -4.65,0.26 -5.76,-0.36 -0.91,-0.51 0.46,-0.08 -0.98,-0.54 -0.67,-0.21 -0.58,-0.01 -1.23,-0.33 -1.13,-0.55 -0.22,-0.57 -2.32,-0.88 1.24,1.57 4.67,2.53 6.49,2.92 6.26,1.36 13.52,-0 18.27,-4.22 0.48,-0.43 0.69,-0.73 1.19,-1.13 1.97,-1.57 3.64,-3.59 5.59,-5.21l9.07 -8.68c0.59,-0.52 0.82,-0.57 1.42,-1.15 1.66,-1.6 3.03,-3.33 4.83,-4.69 1.95,-1.49 3.54,-3.48 5.38,-5.17l1.9 -1.7c0.98,-0.98 1.46,-1.48 2.55,-2.34l24.37 -23.22c0.44,-0.44 0.71,-0.75 1.16,-1.16l15.93 -14.94c0.04,-0.04 0.09,-0.09 0.13,-0.12 0.04,-0.04 0.09,-0.09 0.13,-0.12l19.25 -18.31c0.04,-0.03 0.1,-0.08 0.14,-0.12l4.74 -4.52c3.78,-3.31 9,-8.15 11.92,-12.01 2.72,-3.61 5.32,-7.49 7.56,-11.49 2.56,-4.58 4.8,-9.42 7.02,-14.35 0.28,-0.62 0.43,-1.13 0.65,-1.67 3.3,-8.32 5.87,-17.18 7.17,-26.05 0.88,-6.02 1.47,-11.41 1.4,-17.68 -0.05,-5.1 -0.75,-12.26 -1.72,-17.3 -3.68,-19.16 -11.88,-36.96 -23.58,-52.53 -2.05,-2.73 -4.01,-5.39 -6.3,-7.85 -2.64,-2.83 -5.27,-6 -8.23,-8.49l-3.85 -3.35c-3.48,-2.97 -7.14,-5.57 -11.02,-8.02 -12.72,-8.04 -27.01,-12.92 -42.01,-15.15 -3.71,-0.55 -18.17,-1.07 -22.99,-0.68 -1.3,0.11 -3.04,0.37 -4.39,0.49 -5.4,0.46 -10.83,1.58 -15.97,3.04 -2.05,0.58 -4.48,0.93 -6.34,1.88 -0.07,0.04 -0.28,0.15 -0.35,0.2 -0.49,0.31 -0.08,-0.04 -0.49,0.38z"/>
   <path class="fil4" d="M195.16 81.59c-0.85,-0.11 -1.15,0.1 -1.8,0.38 -0.69,0.28 -0.94,0.32 -1.74,0.57 -0.61,0.19 -1.04,0.45 -1.64,0.68l-23.6 12.4c-0.24,0.14 -0.53,0.28 -0.82,0.46l-4.04 2.91c-1.97,1.6 -4.03,2.92 -5.91,4.64l-26.92 24.78c-0.04,0.04 -0.09,0.09 -0.12,0.13 -0.04,0.04 -0.09,0.1 -0.12,0.13l-6.16 6.19c-0.84,0.82 -1.52,1.58 -2.47,2.42l-1.88 1.98c-0.16,0.17 -0.17,0.18 -0.38,0.39 -0.29,0.29 -0.23,0.22 -0.53,0.5 -0.29,0.27 -0.47,0.42 -0.67,0.61l-4.6 4.66c-0.77,0.81 -0.86,0.58 -1.07,1.76 1.24,-0.35 0.74,-0.3 1.61,-1.23 0.57,-0.61 0.72,-0.65 1.34,-1.19 1.17,-1.01 1.74,-2.06 3.83,-3.89 0.53,-0.46 0.8,-0.85 1.23,-1.32 1,-1.11 2.41,-2.01 3.26,-3.24 0.65,-0.94 1.38,-1.1 1.99,-1.88l3.74 -3.94c1.07,-0.76 0.6,0.07 1.52,-1.03l2.6 -2.57c0.04,-0.04 0.1,-0.08 0.14,-0.12 2.56,-2.22 4.95,-5.32 7.62,-7.57l5.11 -4.65c0.04,-0.04 0.09,-0.09 0.13,-0.13l11.13 -9.96c0.98,-0.81 1.84,-1.31 2.97,-2.18l3.91 -3.04c0.3,-0.22 0.2,-0.13 0.49,-0.31l4.56 -3.13c1.54,-1.08 3.29,-2.37 5.1,-2.76l0.94 -0.45c2.06,-1.81 4.64,-3.32 7.1,-4.39 0.84,-0.37 1.21,-0.27 1.98,-0.69l1.9 -0.71c1.27,-0.48 -0.01,-0.34 1.56,-0.94l3.8 -1.36c0.83,-0.54 -0.53,-0.06 0.83,-0.49 0.48,-0.15 0.72,-0.08 1.16,-0.19 1.04,-0.26 0.41,-0.49 1.66,-0.83l4.02 -1.16c1.82,-0.38 3.06,-1.56 5.98,-1.79 2.25,-0.17 3.32,0.48 4.18,-1.04 2.54,-0.03 2.92,-0.18 4.93,-0.82 0.49,-0.16 0.52,-0.13 1.11,-0.2 0.74,-0.09 1.53,-0.13 2.39,-0.16 2.88,-0.09 5.3,-0.83 9,-0.81 3.26,0.01 6.52,0.02 9.78,0.01 1.85,-0 2.95,0.31 4.62,0.3 2.2,-0.01 2.74,0.48 4.37,0.57 1.43,0.08 3.33,-0.1 4.49,0.49 1.65,0.84 2.73,0.31 4.06,0.84 1.89,0.76 4.36,0.81 6.19,1.54l1.7 0.41c0.65,0.19 1.06,0.51 1.62,0.68 0.93,0.28 2,0.1 2.82,0.66 0.87,0.6 7.84,3 9.71,4l15.19 8.95c1.26,0.9 2.55,1.74 3.58,2.88 0.04,0.04 0.08,0.1 0.12,0.14 0.69,0.77 0.9,0.62 1.87,1.17 1.45,0.82 1.57,1.35 2.6,2.32 0.48,0.44 0.13,0.11 0.57,0.45l2.1 1.78c0.84,0.88 1.6,1.65 2.41,2.47 3.45,3.48 6.68,7.03 9.69,10.91l0.54 0.75c1.26,1.75 0.65,1.42 2.56,3.55 0.23,0.25 0.42,0.5 0.58,0.73l9.18 15c0.78,1.3 1.06,2.73 1.92,4.02 1.71,2.55 1.43,3.5 1.83,4.41l2.35 5.04c1.07,1.78 1.33,4.42 1.85,5.35 0.99,1.78 1.3,3.65 1.76,5.72 0.22,1.03 0.45,0.75 0.68,1.62 0.58,2.17 -0.57,1.15 0.84,4.02 0.61,1.25 0.29,3.27 0.38,4.7 0.09,1.29 0.37,0.96 0.69,1.64 0.44,0.92 0.32,3.21 0.54,4.38 1.19,6.47 1.09,16.37 -0.09,23.11 -0.24,1.39 -0.13,3.15 -0.34,4.59 -0.28,1.86 -0.84,1.14 -0.91,3.83 -0.06,2.48 -0.71,2.24 -0.97,3.95 -0.11,0.73 -0.04,1.52 -0.17,2.22 -0.22,1.18 -0.46,0.68 -0.73,1.86 -0.18,0.76 -0.12,1.28 -0.35,1.96 -0.43,1.28 -0.62,0.72 -0.82,1.66 -0.19,0.89 0.07,1.16 -0.32,2.12 -0.42,1.02 -0.39,0.37 -0.68,1.84 -0.29,1.49 -0.24,0.9 -0.65,1.7 -0.41,0.8 -0.25,1.24 -0.56,2.04 -0.35,0.91 -0.38,0.28 -0.72,1.59 -0.87,3.34 -0.81,1.97 -2.1,5.45 -0.72,1.94 -2.85,5.14 -2.93,7.01 1.32,-0.39 0.92,-0.4 1.3,-1.71 0.33,-1.13 1.22,-2.36 1.71,-3.42 0.19,-0.42 0.23,-0.58 0.44,-0.92 0.73,-1.16 0.55,-1.7 1.02,-2.81 0.33,-0.78 0.55,-0.52 0.81,-1.71 0.33,-1.47 0.25,-0.97 0.7,-1.98 0.57,-1.27 1.12,-2.41 1.33,-3.65 0.35,-2.07 0.34,-0.47 0.87,-1.76 0.3,-0.73 -0.02,-1.24 0.42,-2.22 0.42,-0.94 0.48,-0.09 0.72,-1.75 0.31,-2.21 0.98,-1.92 1.07,-4 0.05,-1.22 -0.01,-1.38 0.46,-2.32 0.48,-0.95 0.43,-0.62 0.5,-2.06 0.13,-2.48 0.67,-2.3 0.91,-4.29 0.18,-1.48 0.18,-3.34 0.38,-4.97 0.17,-1.33 0.66,-2.84 0.72,-4.37 0.28,-6.82 0.4,-13.51 0.03,-20.31l-1.31 -8.91c-0.72,-1.97 -0.33,-2.59 -0.79,-4.4 -0.31,-1.22 -0.47,-0.56 -0.74,-1.76 -0.38,-1.66 -0.9,-5 -1.56,-6.19 -0.6,-1.07 -0.32,-0.42 -0.66,-1.81 -0.33,-1.36 -0.43,-0.83 -0.75,-1.87 -0.33,-1.07 -0.06,-1.02 -0.6,-2.02l-2.88 -7.44c-0.47,-0.81 -0.04,0.35 -0.52,-0.77 -0.19,-0.44 -0.11,-0.6 -0.28,-1.05 -0.29,-0.77 -0.6,-0.65 -0.94,-1.62 -0.44,-1.23 -0.51,-0.8 -0.91,-1.53 -0.2,-0.37 -0.2,-0.47 -0.42,-0.88l-1.78 -3.39c-1.52,-2.99 -3.37,-5.84 -5.35,-8.78l-2.06 -3.1c-1.37,-1.97 -4.26,-6.61 -5.6,-8.06 -0.05,-0.06 -0.2,-0.22 -0.25,-0.28 -0.78,-0.92 -1.76,-1.68 -2.46,-2.72 -0.86,-1.26 -0.96,-1.07 -1.76,-2.05l-6.22 -6.63c-0.55,-0.57 -0.72,-0.75 -1.39,-1.15l-2.16 -1.72c-0.15,-0.15 -0.24,-0.26 -0.38,-0.41 -1.38,-1.49 -2.94,-2.31 -4.61,-3.65 -1.04,-0.83 -1.87,-1.54 -2.93,-2.21 -0.63,-0.4 -0.09,-0.04 -0.72,-0.53l-3.87 -2.58c-0.59,-0.4 -0.85,-0.62 -1.57,-0.96l-4.94 -2.82c-0.58,-0.3 -0.31,-0.07 -0.84,-0.47 -0.79,-0.58 -1.62,-0.64 -2.6,-1.22 -1.26,-0.74 -2.16,-1.24 -3.55,-1.58l-3.59 -1.55c-1.01,-0.59 -0.92,-0.18 -2.05,-0.51 -1.24,-0.36 -0.32,-0.54 -1.7,-0.84 -1.3,-0.28 -0.93,0.19 -2.12,-0.57 -1.07,-0.68 -0.26,-0.4 -1.86,-0.55 -2.5,-0.24 -0.61,-0.8 -4.13,-1.03 -1.87,-0.12 -1.05,-0.25 -2.01,-0.68 -1.2,-0.54 -2.92,-0.1 -4.44,-0.73 -1.31,-0.54 -3.34,-0.52 -4.18,-1.03 -0.93,-0.57 -0.4,-0.4 -1.94,-0.44 -6.44,-0.18 -22.47,-0.69 -28.1,0.04 -2.12,0.27 -1.33,0.63 -4.34,0.75 -2.49,0.1 -1.97,0.82 -4.09,0.96 -0.81,0.05 -1.74,-0.03 -2.49,0.23 -1.08,0.37 -0.13,0.53 -1.78,0.75 -0.77,0.11 -1.62,0.01 -2.34,0.26 -1.06,0.37 -0.26,0.54 -1.67,0.76 -2.7,0.43 -2.06,1 -4.35,1.07z"/>
   <path class="fil3" d="M182.45 143.99l-0.99 1.3c-1.38,1.12 -3.95,2.82 -5.01,4.18l-22.54 22.55c-0.41,0.45 -0.6,0.63 -1.02,1.05 -0.67,0.66 -1.45,1.39 -2.05,2.07l-17.79 18.7c-1.95,1.84 -6.05,4.54 -8.66,5.15 -1.86,0.43 -2.36,1.37 -7.65,0.89 -1.44,-0.13 -1.57,-0.49 -2.38,-0.79 -1.08,-0.39 -0.76,0.1 -2.66,-0.66 -0.56,-0.22 -0.87,-0.29 -1.64,-0.45 -1.9,-0.41 -1.25,-0.89 -3.33,-1.26l0.99 0.94c0.43,0.27 0.92,0.4 1.4,0.65 3.5,1.83 4.47,2.1 9.1,2.75 4.72,0.66 8.43,-0.88 12.19,-3.13 1.64,-0.98 2.94,-2.08 4.29,-3.42 0.38,-0.38 0.54,-0.49 0.94,-0.86 0.04,-0.04 0.1,-0.09 0.13,-0.12l2.92 -2.99c1.28,-1.28 2.69,-2.53 3.86,-3.86l4.21 -4.53c0.17,-0.17 0.34,-0.3 0.55,-0.48l10.58 -11.03c4.34,-4.67 10.61,-11.18 15.23,-15.38l6.53 -6.07c2.95,-2.99 11.9,-9.88 15.73,-11.79 5.43,-2.7 11.39,-4.73 17.44,-5.95 11.74,-2.39 23.27,-3.08 34.94,0.84 4.18,1.4 7.07,2.84 10.83,4.88 3.6,1.95 8.42,6.09 8.69,6.23 0.65,0.35 -0.14,0.2 0.75,0.22 -0.34,-1.05 -0.02,-0.25 -0.47,-0.74 -0.11,-0.12 -0.6,-0.59 -0.65,-0.64l-0.28 -0.26c-1.09,-0.9 -1.82,-1.21 -3.46,-2.7l-5.87 -3.9c-0.77,-0.45 -0.19,-0.2 -0.76,-0.52l-1.84 -0.99c-0.63,-0.36 -0.26,-0.1 -0.94,-0.35 -1.44,-0.53 -0.37,-0.59 -1.89,-0.93 -1.85,-0.41 -0.68,-0.13 -1.83,-0.76l-4.31 -1.26c-1.71,-0.29 -0.62,-0.48 -1.83,-0.88 -2.25,-0.73 -3.08,0.81 -4.47,-1.1 -1.68,-0.04 -20.08,-0.28 -21.22,-0 -1.81,0.45 0.74,0.65 -4.9,0.93 -3.24,0.16 -0.24,0.65 -3.82,0.91 -2.02,0.15 -1.8,0.56 -2.5,0.82 -0.43,0.16 -0.65,0.12 -1.12,0.17 -2.03,0.22 -1.46,0.82 -3.37,1.02 -2.76,0.29 -5.12,1.4 -7.45,2.63 -1.6,0.85 -0.2,-0.24 -1.78,0.99 -1.01,0.79 -0.72,0.19 -1.73,1.1 -2.35,2.1 -1.85,1.27 -3.56,2.63 -0.34,0.27 -0.15,0.14 -0.41,0.37 -0.89,0.77 -1.77,1.21 -2.7,1.92l-2.45 1.96z"/>
   <path class="fil4" d="M184.16 366.12c2.1,0.31 1.18,0.33 2.32,0.88 0.65,0.31 0.56,0.11 1.23,0.33 1.44,0.46 0.08,0.04 0.98,0.54 1.11,0.62 4.2,0.36 5.76,0.36 8.71,0 3.89,-0.28 6.68,-0.96 1.63,-0.39 3.62,-0.96 5.06,-2.35l1.35 -1.48c0.04,-0.03 0.1,-0.07 0.14,-0.09 1.51,-1.04 1.91,-1.65 3.23,-2.97l7.97 -7.14c0.28,-0.39 0.01,-0.05 0.34,-0.48l2.76 -2.71c2.65,-2.14 7.68,-7.76 10.95,-10.37l3.73 -3.73c1.34,-1.38 4.61,-3.87 5.4,-5.42 -1.02,0.16 -1.22,0.45 -1.83,1.04l-2.59 2.56c-0.64,0.48 -1.04,0.53 -1.55,1.21l-4.25 4.04c-0.06,0.05 -0.23,0.18 -0.29,0.23l-13.49 13.01c-0.36,0.29 -0.35,0.24 -0.72,0.55 -0.04,0.03 -0.1,0.08 -0.13,0.12l-3.69 3.77c-1.38,1.25 -2.02,1.27 -3.29,2.86l-5.16 4.91c-2.87,1.53 -4.36,2.06 -7.78,2.35 -2.22,0.19 -8.14,0.02 -9.71,-0.71l-6.26 -3.82c-1.35,-1.41 -1.95,-1.32 -3.14,-3.34l-0.86 -0.83c-0.05,-0.03 -0.11,-0.07 -0.16,-0.11l-0.57 -0.5c-1.29,-1.32 -3.75,-4.42 -4.36,-6.29 -0.27,-0.82 -0.35,-0.67 -0.84,-1.36 -0.04,-0.05 -0.08,-0.11 -0.11,-0.17l-0.94 -1.63c-2.22,-3.78 -1,-9.11 -0.12,-12.77l1.62 -3.42c1.4,-2.24 2.94,-3.45 4.74,-5.27 0.91,-0.92 1.54,-1.57 2.43,-2.46 0.89,-0.89 1.68,-1.58 2.67,-2.48 1.12,-1.02 1.64,-1.64 2.63,-2.52 1.81,-1.61 2.34,-2.28 3.26,-2.74 0.91,-0.45 0.76,-0.72 1.44,-1.54l3.16 -3.04c0.08,-0.07 0.3,-0.26 0.42,-0.36 0.06,-0.05 0.22,-0.19 0.28,-0.24 0.35,-0.31 0.28,-0.27 0.63,-0.63l13.1 -12.13c1.62,-1.33 2.91,-3.09 4.56,-4.19 0.61,-0.41 0.97,-0.5 1.39,-1.12 0.89,-1.31 2,-1.98 3.17,-3.03l31.24 -28.98c3.55,-2.96 9.65,-10.01 12.61,-12.59l1.4 -1.18c0.59,-0.63 0.69,-0.52 0.81,-1.5 -1.55,0.02 -0.69,0.32 -1.97,1.38l-20.29 19.59c-0.04,0.04 -0.09,0.09 -0.13,0.13l-1.54 1.55c-0.04,0.04 -0.1,0.08 -0.14,0.12l-23.5 21.52c-0.04,0.04 -0.09,0.09 -0.13,0.13 -0.04,0.04 -0.09,0.09 -0.13,0.13 -0.04,0.04 -0.09,0.09 -0.13,0.13 -0.04,0.04 -0.09,0.09 -0.13,0.13l-2.33 2.05c-0.23,0.22 -0.3,0.26 -0.54,0.49l-7.38 6.77c-0.04,0.04 -0.09,0.09 -0.13,0.13l-21.03 19.88c-0.12,0.12 -0.38,0.38 -0.39,0.39l-0.99 0.82c-0.17,0.14 -0.34,0.32 -0.54,0.49l-5.47 5.33c-0.51,0.61 -0.32,0.38 -0.87,0.93 -1.26,1.25 -2.68,2.84 -3.25,4.47 -0.32,0.92 -0.67,0.85 -0.93,1.9 -0.23,0.92 0.05,0.59 -0.34,1.46 -0.3,0.67 -0.32,0.21 -0.61,1.19 -0.54,1.83 -0.74,8.49 0.52,11.26 0.57,1.25 0.96,2.54 1.7,3.7l1.45 2.15c0.15,0.22 0.15,0.23 0.32,0.45 0.03,0.04 0.08,0.1 0.12,0.14l0.25 0.27c0.7,0.83 1.08,1.81 1.92,2.7l5.78 6.05c0.82,0.77 2.09,2.07 3.19,2.08z"/>
   <path class="fil4" d="M96.76 162.09c-0.82,0.51 -0.08,-0.05 -0.57,0.41 -1.08,1.02 -0.23,1.09 -1.16,2.76 -1.04,1.88 -0.29,2.22 -0.78,3.85 -0.71,2.36 -1.2,6.36 -0.45,8.77 0.47,1.52 0.52,0.27 0.63,2.46 0.09,1.95 0.39,1.82 0.74,2.6 0.46,1.05 0.18,1.12 0.83,2.25 0.47,0.81 0.52,1.23 1.05,2.04 0.08,0.13 0.17,0.24 0.31,0.47 1.77,2.92 5.04,6.08 7.78,8.18 1.11,0.85 0.9,0.81 1.61,0.84 2.08,0.37 1.42,0.85 3.33,1.26 0.76,0.16 1.08,0.23 1.64,0.45 1.91,0.75 1.58,0.26 2.66,0.66 0.8,0.29 0.94,0.66 2.38,0.79 5.29,0.48 5.79,-0.46 7.65,-0.89 2.61,-0.61 6.71,-3.31 8.66,-5.15l17.79 -18.7c0.6,-0.68 1.38,-1.41 2.05,-2.07 0.42,-0.41 0.61,-0.6 1.02,-1.05l22.54 -22.55c1.06,-1.36 3.63,-3.06 5.01,-4.18l0.99 -1.3c-1.48,0.07 -3.28,2.2 -4.28,2.92 -1.27,0.91 -7.24,6.99 -8.66,8.29 -0.76,0.7 -1.31,1.24 -2.1,2.02l-4.1 3.86c-0.78,0.94 -1.24,1.24 -2.01,2.12 -0.64,0.73 -0.47,0.45 -1.1,0.98l-2.97 3.14c-0.64,0.98 -1.11,1.11 -1.84,2.03l-1.03 1.06c-0.99,0.84 -0.73,1.06 -1.97,2.14l-3.93 4.02c-0.26,0.28 -0.71,0.74 -1,1.06l-4.09 4.14c-0.69,0.69 -1.22,1.58 -1.87,2.25l-9.99 10.08c-4.53,3.62 -5.96,3.16 -6.72,3.62 -0.82,0.5 -0.17,0.47 -1.32,0.75 -1.85,0.46 -5.64,0.47 -7.62,0.17 -3.72,-0.58 -0.86,0.24 -5.05,-1.16 -1.13,-0.38 -0.56,0.33 -0.97,-0.93 -2.23,-0.17 -3.58,-1.54 -5.22,-2.7 -0.38,-0.27 -0.56,-0.41 -0.88,-0.68 -0.65,-0.54 -1.27,-0.97 -1.87,-1.49 -1.88,-1.62 -2.41,-2.64 -3.56,-4.45l-0.99 -1.84c-2.53,-4.65 -2.46,-6.03 -2.48,-11.98 -0,-1.98 -0.24,-4.49 0.36,-6.17 0.36,-1 0.46,-1.1 0.71,-2.57 0.31,-1.81 0.73,-0.67 0.84,-2.58z"/>
   <path class="fil4" d="M261.79 246.23c1.52,-0.3 1.97,-1.33 2.75,-2.13l18.98 -20.88c0.03,-0.04 0.08,-0.1 0.12,-0.15l1.4 -2.93c0.81,-2.14 0.57,-0.68 1.17,-2.43l0.14 -0.41c0.03,-0.06 0.06,-0.13 0.09,-0.18l0.21 -0.31c0.85,-1.38 0.37,-1.34 0.81,-2.52 1.04,-2.74 2.5,-8.8 2.65,-11.73 0.19,-3.84 0.3,-15.71 -0.48,-18.78 -0.35,-1.38 -0.28,-2.68 -0.6,-4.01 -0.27,-1.13 -0.46,-0.7 -0.67,-1.93 -0.43,-2.56 -0.51,-3.12 -1.34,-5.57 -0.33,-0.97 -0.47,-0.61 -0.77,-1.83 -0.19,-0.79 -0.12,-1 -0.52,-1.76 -1.19,-2.25 0.29,-0.69 -1.17,-2.91l-0.2 -0.35c-0.2,-0.45 -0.14,-0.6 -0.3,-1.04l-1.19 -2.34c-1.02,-1.48 -1.7,-3.23 -2.59,-4.63 -0.6,-0.94 -0.46,-0.3 -1.04,-1.2l-6 -8.18c-0.04,-0.04 -0.1,-0.09 -0.14,-0.12l-0.71 -0.57c-0.03,-0.03 -0.08,-0.09 -0.12,-0.13l-2.61 -2.81c-0.99,-0.92 0.01,-0.7 -1.59,-0.79 0.28,0.97 -0.14,0.03 0.38,0.71l10.91 13.79c0.42,0.67 0.46,0.96 0.92,1.66l1.32 2.28c0.03,0.05 0.05,0.12 0.08,0.18 0.73,1.71 2.84,5.78 3.17,7.11 0.26,1.06 0.29,0.78 0.7,1.62 0.4,0.82 0.27,1.17 0.55,2.02 1.23,3.62 1.19,4.08 1.9,7.61 0.16,0.81 0.41,1.2 0.55,1.77 0.17,0.7 0.21,4.88 0.62,6.58 0.62,2.58 0.95,10.23 -0.03,13.11 -0.28,0.83 -0.39,3.4 -0.48,4.41 -0.19,2.08 -1.43,5.54 -1.91,7.62 -0.19,0.8 -0.44,0.92 -0.73,1.58 -0.27,0.6 -0.05,0.16 -0.25,0.78l-3.22 6.05c-0.03,0.04 -0.08,0.11 -0.11,0.15l-2.99 3.96c-1.45,1.78 -4.03,4.3 -5.84,6.76l-5.52 5.8c-0.03,0.04 -0.08,0.1 -0.12,0.14 -0.04,0.04 -0.09,0.1 -0.12,0.14l-3.35 3.34c-0.35,0.37 -0.34,0.37 -0.6,0.68 -0.23,0.27 -0.21,0.26 -0.49,0.54l-0.65 0.63c-0.01,0.01 -0.62,0.66 -0.62,0.67 -0.44,0.68 -0.3,0.08 -0.31,0.97z"/>
  </g>
 </g>
</svg>
